<?xml version="1.0" encoding="utf-8"?>
<!-- Generator: Adobe Illustrator 22.0.1, SVG Export Plug-In . SVG Version: 6.00 Build 0)  -->
<svg version="1.1" id="Laag_1" xmlns="http://www.w3.org/2000/svg" xmlns:xlink="http://www.w3.org/1999/xlink" x="0px" y="0px"
	 viewBox="0 0 259.9 82.1" style="enable-background:new 0 0 259.9 82.1;" xml:space="preserve">
<style type="text/css">
	.st0{fill:#F1F1F1;}
	.st1{font-family:'BebasNeue';}
	.st2{font-size:24px;}
	.st3{fill:none;stroke:#F1F1F1;stroke-miterlimit:10;}
</style>
<text transform="matrix(1 0 0 1 72.6854 50.159)" class="st0 st1 st2">find us on instagram</text>
<rect x="0.9" y="1.3" class="st3" width="258.4" height="79.6"/>
<g>
	<g>
		<g>
			<path class="st0" d="M46.2,24.7H31c-4.9,0-9,4-9,9v15.2c0,4.9,4,9,9,9h15.2c4.9,0,9-4,9-9V33.6C55.1,28.7,51.1,24.7,46.2,24.7z
				 M52.5,48.9c0,3.5-2.8,6.3-6.3,6.3H31c-3.5,0-6.3-2.8-6.3-6.3V33.6c0-3.5,2.8-6.3,6.3-6.3h15.2c3.5,0,6.3,2.8,6.3,6.3V48.9z"/>
		</g>
	</g>
</g>
<g>
	<g>
		<g>
			<path class="st0" d="M47.9,30.5c-0.2-0.2-0.6-0.4-0.9-0.4s-0.7,0.1-0.9,0.4c-0.2,0.2-0.4,0.6-0.4,0.9s0.1,0.7,0.4,0.9
				c0.2,0.2,0.6,0.4,0.9,0.4s0.7-0.1,0.9-0.4c0.2-0.2,0.4-0.6,0.4-0.9C48.3,31.1,48.2,30.8,47.9,30.5z"/>
		</g>
	</g>
</g>
<g>
	<g>
		<g>
			<path class="st0" d="M45.9,40.2c-0.2-1.6-1-3-2.1-4.2c-1.1-1.1-2.6-1.9-4.2-2.1c-0.7-0.1-1.5-0.1-2.2,0c-2,0.3-3.7,1.3-4.9,2.9
				c-1.2,1.6-1.7,3.6-1.4,5.5c0.3,2,1.3,3.7,2.9,4.9c1.3,1,2.8,1.5,4.4,1.5c0.4,0,0.7,0,1.1-0.1c2-0.3,3.7-1.3,4.9-2.9
				C45.7,44.1,46.2,42.1,45.9,40.2z M39.3,46c-1.3,0.2-2.5-0.1-3.5-0.9c-1-0.8-1.7-1.9-1.9-3.1c-0.2-1.3,0.1-2.5,0.9-3.5
				c0.8-1,1.9-1.7,3.1-1.9c0.2,0,0.5-0.1,0.7-0.1c0.2,0,0.5,0,0.7,0.1c2.1,0.3,3.7,1.9,4,4C43.7,43.2,41.9,45.6,39.3,46z"/>
		</g>
	</g>
</g>
</svg>
