<?xml version="1.0" encoding="utf-8"?>
<!-- Generator: Adobe Illustrator 22.0.1, SVG Export Plug-In . SVG Version: 6.00 Build 0)  -->
<svg version="1.1" id="Laag_1" xmlns="http://www.w3.org/2000/svg" xmlns:xlink="http://www.w3.org/1999/xlink" x="0px" y="0px"
	 viewBox="0 0 259.9 82.1" style="enable-background:new 0 0 259.9 82.1;" xml:space="preserve">
<style type="text/css">
	.st0{fill:none;stroke:#F1F1F1;stroke-miterlimit:10;}
	.st1{fill:#F1F1F1;}
	.st2{font-family:'BebasNeue';}
	.st3{font-size:24px;}
</style>
<rect x="0.9" y="1.3" class="st0" width="258.4" height="79.6"/>
<g>
	<g>
		<path class="st1" d="M38.8,24.3c-9.3,0-16.8,7.5-16.8,16.8s7.5,16.8,16.8,16.8S55.6,50.3,55.6,41S48.1,24.3,38.8,24.3z M38.8,55.2
			c-7.8,0-14.1-6.3-14.1-14.1S31,26.9,38.8,26.9S53,33.2,53,41S46.6,55.2,38.8,55.2z"/>
		<path class="st1" d="M42.8,38.5h-2.9v-2.1c0-0.7,0.7-0.8,1-0.8c0.3,0,1.9,0,1.9,0v-2.9l-2.2,0c-2.9,0-3.6,2.1-3.6,3.5v2.3h-2.1v3
			H37c0,3.8,0,8,0,8h2.9c0,0,0-4.2,0-8h2.5L42.8,38.5z"/>
	</g>
</g>
<text transform="matrix(1 0 0 1 79.9447 49.7921)" class="st1 st2 st3">find us on facebook</text>
</svg>
